<?xml version="1.0" encoding="utf-8" ?>
<svg baseProfile="tiny" height="100%" version="1.2" width="100%" xmlns="http://www.w3.org/2000/svg" xmlns:ev="http://www.w3.org/2001/xml-events" xmlns:xlink="http://www.w3.org/1999/xlink"><defs /><text x="250" y="30">fib(7)</text><line stroke="rgb(10%,10%,16%)" x1="250" x2="222" y1="38" y2="55" /><line stroke="rgb(10%,10%,16%)" x1="270" x2="300" y1="38" y2="55" /><text x="290" y="70">fib(5)</text><text x="210" y="70">fib(6)</text><line stroke="rgb(10%,10%,16%)" x1="210" x2="182" y1="78" y2="95" /><line stroke="rgb(10%,10%,16%)" x1="230" x2="260" y1="78" y2="95" /><text x="250" y="110">fib(4)</text><text x="170" y="110">fib(5)</text><line stroke="rgb(10%,10%,16%)" x1="170" x2="142" y1="118" y2="135" /><line stroke="rgb(10%,10%,16%)" x1="190" x2="220" y1="118" y2="135" /><text x="210" y="150">fib(3)</text><text x="130" y="150">fib(4)</text><line stroke="rgb(10%,10%,16%)" x1="130" x2="102" y1="158" y2="175" /><line stroke="rgb(10%,10%,16%)" x1="150" x2="180" y1="158" y2="175" /><text x="170" y="190">fib(2)</text><text x="90" y="190">fib(3)</text><line stroke="rgb(10%,10%,16%)" x1="90" x2="62" y1="198" y2="215" /><line stroke="rgb(10%,10%,16%)" x1="110" x2="140" y1="198" y2="215" /><text x="130" y="230">fib(1)</text><text x="50" y="230">fib(2)</text><line stroke="rgb(10%,10%,16%)" x1="50" x2="22" y1="238" y2="255" /><line stroke="rgb(10%,10%,16%)" x1="70" x2="100" y1="238" y2="255" /><text x="90" y="270">fib(0)</text><text x="10" y="270">fib(1)</text></svg>