<?xml version="1.0" encoding="utf-8" ?>
<svg baseProfile="tiny" height="100%" version="1.2" width="100%" xmlns="http://www.w3.org/2000/svg" xmlns:ev="http://www.w3.org/2001/xml-events" xmlns:xlink="http://www.w3.org/1999/xlink"><defs /><text x="550" y="30">fib(7)</text><line stroke="rgb(10%,10%,16%)" x1="550" x2="356.7589" y1="38" y2="55" /><line stroke="rgb(10%,10%,16%)" x1="570" x2="763.2411" y1="38" y2="55" /><text x="346.75890702375955" y="70">fib(6)</text><line stroke="rgb(10%,10%,16%)" x1="346.7589" x2="231.149" y1="78" y2="95" /><line stroke="rgb(10%,10%,16%)" x1="366.7589" x2="482.3688" y1="78" y2="95" /><text x="221.14900365376542" y="110">fib(5)</text><line stroke="rgb(10%,10%,16%)" x1="221.149" x2="153.5178" y1="118" y2="135" /><line stroke="rgb(10%,10%,16%)" x1="241.149" x2="308.7802" y1="118" y2="135" /><text x="143.5178140475191" y="150">fib(4)</text><line stroke="rgb(10%,10%,16%)" x1="143.5178" x2="105.5391" y1="158" y2="175" /><line stroke="rgb(10%,10%,16%)" x1="163.5178" x2="201.4965" y1="158" y2="175" /><text x="95.53910028377129" y="190">fib(3)</text><line stroke="rgb(10%,10%,16%)" x1="95.5391" x2="75.8866" y1="198" y2="215" /><line stroke="rgb(10%,10%,16%)" x1="115.5391" x2="135.1916" y1="198" y2="215" /><text x="65.88662444127276" y="230">fib(2)</text><line stroke="rgb(10%,10%,16%)" x1="65.8866" x2="57.5604" y1="238" y2="255" /><line stroke="rgb(10%,10%,16%)" x1="85.8866" x2="94.2129" y1="238" y2="255" /><text x="47.56038652002349" y="270">fib(1)</text><text x="84.21286236252203" y="270">fib(0)</text><text x="125.19157612626982" y="230">fib(1)</text><text x="191.4965278112669" y="190">fib(2)</text><line stroke="rgb(10%,10%,16%)" x1="191.4965" x2="183.1703" y1="198" y2="215" /><line stroke="rgb(10%,10%,16%)" x1="211.4965" x2="219.8228" y1="198" y2="215" /><text x="173.17028989001764" y="230">fib(1)</text><text x="209.82276573251616" y="230">fib(0)</text><text x="298.78019326001174" y="150">fib(3)</text><line stroke="rgb(10%,10%,16%)" x1="298.7802" x2="279.1277" y1="158" y2="175" /><line stroke="rgb(10%,10%,16%)" x1="318.7802" x2="338.4327" y1="158" y2="175" /><text x="269.1277174175132" y="190">fib(2)</text><line stroke="rgb(10%,10%,16%)" x1="269.1277" x2="260.8015" y1="198" y2="215" /><line stroke="rgb(10%,10%,16%)" x1="289.1277" x2="297.454" y1="198" y2="215" /><text x="250.80147949626397" y="230">fib(1)</text><text x="287.4539553387625" y="230">fib(0)</text><text x="328.43266910251026" y="190">fib(1)</text><text x="472.3688103937537" y="110">fib(4)</text><line stroke="rgb(10%,10%,16%)" x1="472.3688" x2="434.3901" y1="118" y2="135" /><line stroke="rgb(10%,10%,16%)" x1="492.3688" x2="530.3475" y1="118" y2="135" /><text x="424.39009663000587" y="150">fib(3)</text><line stroke="rgb(10%,10%,16%)" x1="424.3901" x2="404.7376" y1="158" y2="175" /><line stroke="rgb(10%,10%,16%)" x1="444.3901" x2="464.0426" y1="158" y2="175" /><text x="394.73762078750735" y="190">fib(2)</text><line stroke="rgb(10%,10%,16%)" x1="394.7376" x2="386.4114" y1="198" y2="215" /><line stroke="rgb(10%,10%,16%)" x1="414.7376" x2="423.0639" y1="198" y2="215" /><text x="376.41138286625807" y="230">fib(1)</text><text x="413.06385870875664" y="230">fib(0)</text><text x="454.0425724725044" y="190">fib(1)</text><text x="520.3475241575014" y="150">fib(2)</text><line stroke="rgb(10%,10%,16%)" x1="520.3475" x2="512.0213" y1="158" y2="175" /><line stroke="rgb(10%,10%,16%)" x1="540.3475" x2="548.6738" y1="158" y2="175" /><text x="502.02128623625214" y="190">fib(1)</text><text x="538.6737620787507" y="190">fib(0)</text><text x="753.2410929762405" y="70">fib(5)</text><line stroke="rgb(10%,10%,16%)" x1="753.2411" x2="685.6099" y1="78" y2="95" /><line stroke="rgb(10%,10%,16%)" x1="773.2411" x2="840.8723" y1="78" y2="95" /><text x="675.6099033699941" y="110">fib(4)</text><line stroke="rgb(10%,10%,16%)" x1="675.6099" x2="637.6312" y1="118" y2="135" /><line stroke="rgb(10%,10%,16%)" x1="695.6099" x2="733.5886" y1="118" y2="135" /><text x="627.6311896062463" y="150">fib(3)</text><line stroke="rgb(10%,10%,16%)" x1="627.6312" x2="607.9787" y1="158" y2="175" /><line stroke="rgb(10%,10%,16%)" x1="647.6312" x2="667.2837" y1="158" y2="175" /><text x="597.9787137637477" y="190">fib(2)</text><line stroke="rgb(10%,10%,16%)" x1="597.9787" x2="589.6525" y1="198" y2="215" /><line stroke="rgb(10%,10%,16%)" x1="617.9787" x2="626.305" y1="198" y2="215" /><text x="579.6524758424985" y="230">fib(1)</text><text x="616.3049516849969" y="230">fib(0)</text><text x="657.2836654487448" y="190">fib(1)</text><text x="723.5886171337419" y="150">fib(2)</text><line stroke="rgb(10%,10%,16%)" x1="723.5886" x2="715.2624" y1="158" y2="175" /><line stroke="rgb(10%,10%,16%)" x1="743.5886" x2="751.9149" y1="158" y2="175" /><text x="705.2623792124926" y="190">fib(1)</text><text x="741.9148550549911" y="190">fib(0)</text><text x="830.8722825824868" y="110">fib(3)</text><line stroke="rgb(10%,10%,16%)" x1="830.8723" x2="811.2198" y1="118" y2="135" /><line stroke="rgb(10%,10%,16%)" x1="850.8723" x2="870.5248" y1="118" y2="135" /><text x="801.2198067399883" y="150">fib(2)</text><line stroke="rgb(10%,10%,16%)" x1="801.2198" x2="792.8936" y1="158" y2="175" /><line stroke="rgb(10%,10%,16%)" x1="821.2198" x2="829.546" y1="158" y2="175" /><text x="782.893568818739" y="190">fib(1)</text><text x="819.5460446612375" y="190">fib(0)</text><text x="860.5247584249854" y="150">fib(1)</text></svg>